# xmcd CD database file
#
# Track frame offsets:
#	150
#	34857
#	79941
#	118376
#	154168
#
# Disc length: 2127 seconds
#
# Revision: 0
# Processed by: cddbd v1.5.1PL0 Copyright (c) Steve Scherf et al.
# Submitted via: CDex 1.51
#
DISCID=3d084d05
DTITLE=Shirley Scott - Queen of the Organ
DYEAR=1964
DGENRE=Jazz
TTITLE0=Just in Time
TTITLE1=Squeez Me (But Don't Tease Me)
TTITLE2=Rapid Shave
TTITLE3=That's for Me
TTITLE4=The Theme
EXTD=YEAR: 1964
EXTT0=
EXTT1=
EXTT2=
EXTT3=
EXTT4=
PLAYORDER=
